<?xml version="1.0" encoding="iso-8859-1"?>
<!-- Uploaded to: SVG Repo, www.svgrepo.com, Generator: SVG Repo Mixer Tools -->
<!DOCTYPE svg PUBLIC "-//W3C//DTD SVG 1.1//EN" "http://www.w3.org/Graphics/SVG/1.1/DTD/svg11.dtd">
<svg fill="#ffff" version="1.1" id="Capa_1" xmlns="http://www.w3.org/2000/svg" xmlns:xlink="http://www.w3.org/1999/xlink" 
	 width="30px" height="30px" viewBox="0 0 373.21 373.21"
	 xml:space="preserve">
<g>
	<path d="M358.044,264.433c-31.212-50.796-89.964-82.007-137.699-115.667c20.195-73.44-36.108-177.48-118.116-141.372
		c-3.672,1.836-4.896,4.896-3.672,7.956c0,1.836,0,4.284,1.836,6.732c12.852,14.076,26.928,26.316,39.168,41.004
		c18.36,21.42-3.672,49.572-15.912,69.156c-5.508,9.18-4.284,7.344-15.3,7.344c-12.852,0-25.704,2.448-38.556,1.836
		c-21.42-0.612-32.436-37.332-50.184-48.348c-0.612-3.672-6.12-4.896-7.956-1.224c-43.452,85.68,58.14,135.863,134.028,121.787
		c27.54,34.885,53.244,70.38,83.844,102.204c25.704,25.704,66.096,66.097,106.488,55.692
		C382.525,358.681,377.017,295.646,358.044,264.433z M295.008,318.289c-9.792-11.016-7.344-25.092,0-36.108
		c1.225,0.612,2.448,0.612,4.284,0c11.628-4.283,20.196-6.731,28.152,4.896c6.731,9.18,8.568,23.868,1.224,33.048
		C318.876,331.141,303.577,328.081,295.008,318.289z M317.041,356.233c6.732,0,14.076-1.225,20.196-4.284
		C331.729,355.621,324.997,357.457,317.041,356.233z"/>
</g>
</svg>